<svg xmlns="http://www.w3.org/2000/svg" xmlns:xlink="http://www.w3.org/1999/xlink" width="583.837" height="503.6" viewBox="0 0 583.837 503.6"><defs><linearGradient id="linear-gradient" x1="0.5" y1="0.863" x2="0.5" gradientUnits="objectBoundingBox"><stop offset="0" stop-color="#f6f6f6"></stop><stop offset="1" stop-color="#066737"></stop></linearGradient><linearGradient id="linear-gradient-2" x1="0.5" y1="1.081" x2="0.5" y2="-0.074" gradientUnits="objectBoundingBox"><stop offset="0" stop-color="#fff"></stop><stop offset="0.201" stop-color="#fcfdfe"></stop><stop offset="0.336" stop-color="#f3f8f9"></stop><stop offset="0.452" stop-color="#e4f0f2"></stop><stop offset="0.557" stop-color="#cfe3e8"></stop><stop offset="0.654" stop-color="#b3d3da"></stop><stop offset="0.746" stop-color="#91c0c9"></stop><stop offset="0.834" stop-color="#68a8b6"></stop><stop offset="0.917" stop-color="#3a8e9f"></stop><stop offset="0.996" stop-color="#077086"></stop><stop offset="1" stop-color="#046f85"></stop></linearGradient><linearGradient id="linear-gradient-3" x1="0.5" y1="0.877" x2="0.5" y2="-0.348" gradientUnits="objectBoundingBox"><stop offset="0" stop-color="#fff"></stop><stop offset="0.095" stop-color="#f9fcfc"></stop><stop offset="0.221" stop-color="#e8f2f4"></stop><stop offset="0.365" stop-color="#cce2e6"></stop><stop offset="0.522" stop-color="#a5ccd3"></stop><stop offset="0.69" stop-color="#74afbb"></stop><stop offset="0.864" stop-color="#388d9e"></stop><stop offset="1" stop-color="#046f85"></stop></linearGradient><linearGradient id="linear-gradient-4" x1="0.499" y1="0.893" x2="0.499" y2="-0.014" xlink:href="#linear-gradient-2"></linearGradient><linearGradient id="linear-gradient-5" x1="0.5" y1="0.954" x2="0.5" y2="-0.055" xlink:href="#linear-gradient-2"></linearGradient><linearGradient id="linear-gradient-6" x1="0.5" y1="0.962" x2="0.5" y2="-0.16" xlink:href="#linear-gradient-2"></linearGradient><linearGradient id="linear-gradient-7" x1="0.501" y1="1.081" x2="0.501" y2="-0.074" xlink:href="#linear-gradient-2"></linearGradient><linearGradient id="linear-gradient-8" x1="0.5" y1="0.893" x2="0.5" y2="-0.014" xlink:href="#linear-gradient-2"></linearGradient><linearGradient id="linear-gradient-9" x1="0.5" y1="0.954" x2="0.5" y2="-0.055" xlink:href="#linear-gradient-2"></linearGradient><linearGradient id="linear-gradient-10" x1="0.5" y1="0.962" x2="0.5" y2="-0.159" xlink:href="#linear-gradient-2"></linearGradient><linearGradient id="linear-gradient-11" x1="0.504" y1="-0.404" x2="0.496" y2="2.298" gradientUnits="objectBoundingBox"><stop offset="0" stop-color="#92b969"></stop><stop offset="0.495" stop-color="#5a7645"></stop><stop offset="1" stop-color="#243522"></stop></linearGradient><linearGradient id="linear-gradient-12" x1="0.55" y1="-0.088" x2="0.483" y2="0.831" gradientUnits="objectBoundingBox"><stop offset="0" stop-color="#fff"></stop><stop offset="0.263" stop-color="#e8f0f5"></stop><stop offset="0.81" stop-color="#afc8dd"></stop><stop offset="1" stop-color="#99b9d4"></stop></linearGradient><linearGradient id="linear-gradient-13" x1="-0.72" y1="-0.756" x2="0.777" y2="0.786" gradientUnits="objectBoundingBox"><stop offset="0" stop-color="#fff"></stop><stop offset="0.185" stop-color="#e8edf1"></stop><stop offset="0.572" stop-color="#aec0ce"></stop><stop offset="1" stop-color="#6788a3"></stop></linearGradient><linearGradient id="linear-gradient-14" x1="0.674" y1="-1.019" x2="0.479" y2="0.523" gradientUnits="objectBoundingBox"><stop offset="0" stop-color="#ffede3"></stop><stop offset="1" stop-color="#feac7c"></stop></linearGradient><linearGradient id="linear-gradient-15" x1="0.456" y1="-0.083" x2="0.511" y2="0.714" xlink:href="#linear-gradient-12"></linearGradient><linearGradient id="linear-gradient-16" x1="0.514" y1="-0.044" x2="0.495" y2="0.867" xlink:href="#linear-gradient-12"></linearGradient><linearGradient id="linear-gradient-17" x1="0.433" y1="-0.842" x2="0.532" y2="1.129" xlink:href="#linear-gradient-12"></linearGradient><linearGradient id="linear-gradient-18" x1="0.318" y1="-0.065" x2="0.748" y2="1.199" xlink:href="#linear-gradient-12"></linearGradient><linearGradient id="linear-gradient-19" x1="1.141" y1="-0.093" x2="0.367" y2="0.511" xlink:href="#linear-gradient-12"></linearGradient><linearGradient id="linear-gradient-20" x1="0.594" y1="0.999" x2="0.508" y2="0.518" gradientUnits="objectBoundingBox"><stop offset="0" stop-color="#fed6bf"></stop><stop offset="1" stop-color="#feba93"></stop></linearGradient><linearGradient id="linear-gradient-21" x1="0.513" y1="0.095" x2="0.487" y2="1.42" xlink:href="#linear-gradient-12"></linearGradient><linearGradient id="linear-gradient-22" x1="0.001" y1="0.501" x2="1.001" y2="0.501" xlink:href="#linear-gradient-20"></linearGradient><linearGradient id="linear-gradient-23" x1="1.399" y1="0.458" x2="0.018" y2="0.517" xlink:href="#linear-gradient-20"></linearGradient><linearGradient id="linear-gradient-24" x1="0.549" y1="0.09" x2="0.466" y2="0.977" gradientUnits="objectBoundingBox"><stop offset="0" stop-color="#522e1c"></stop><stop offset="0.42" stop-color="#69402a"></stop><stop offset="1" stop-color="#8e5f42"></stop></linearGradient><radialGradient id="radial-gradient" cx="0.346" cy="0.636" r="0.5" gradientTransform="matrix(-0.992, 0.125, 0.125, 0.992, -3031.077, 190.22)" gradientUnits="objectBoundingBox"><stop offset="0" stop-color="#d66b24"></stop><stop offset="1"></stop></radialGradient><radialGradient id="radial-gradient-2" cx="0.319" cy="0.506" r="0.502" gradientTransform="matrix(-0.987, -0.16, -0.16, 0.987, -3888.124, -313.096)" gradientUnits="objectBoundingBox"><stop offset="0" stop-color="#42210b"></stop><stop offset="1"></stop></radialGradient><radialGradient id="radial-gradient-3" cx="1.284" cy="-0.061" r="0.5" gradientTransform="matrix(-0.996, 0.084, 0.084, 0.996, -3132.248, 131.721)" xlink:href="#radial-gradient"></radialGradient><radialGradient id="radial-gradient-4" cx="1.27" cy="0.473" r="0.502" gradientTransform="matrix(-0.98, -0.201, -0.201, 0.98, -4008.978, -406.885)" xlink:href="#radial-gradient-2"></radialGradient><linearGradient id="linear-gradient-25" x1="0.175" y1="0.032" x2="1.06" y2="0.958" xlink:href="#linear-gradient-12"></linearGradient><radialGradient id="radial-gradient-5" cx="0.578" cy="0.505" r="0.306" gradientTransform="matrix(1.423, 0.244, -0.556, 1.508, -77.762, -5.793)" gradientUnits="objectBoundingBox"><stop offset="0" stop-color="#ff2e61"></stop><stop offset="0.005" stop-color="#ff2f62"></stop><stop offset="0.281" stop-color="#ff7899"></stop><stop offset="0.528" stop-color="#ffb2c5"></stop><stop offset="0.737" stop-color="#ffdce4"></stop><stop offset="0.901" stop-color="#fff6f8"></stop><stop offset="1" stop-color="#fff"></stop></radialGradient><linearGradient id="linear-gradient-26" x1="0.51" y1="0.488" x2="0.755" y2="0.952" xlink:href="#linear-gradient-24"></linearGradient><linearGradient id="linear-gradient-27" x1="0.481" y1="1.137" x2="0.515" y2="0.014" gradientUnits="objectBoundingBox"><stop offset="0" stop-color="#522e1c"></stop><stop offset="0.235" stop-color="#6c432c"></stop><stop offset="0.481" stop-color="#7f5338"></stop><stop offset="0.734" stop-color="#8a5c40"></stop><stop offset="1" stop-color="#8e5f42"></stop></linearGradient><linearGradient id="linear-gradient-28" x1="2.449" y1="20.82" x2="3.056" y2="20.244" gradientUnits="objectBoundingBox"><stop offset="0" stop-color="#fff"></stop><stop offset="1" stop-color="#231f20"></stop></linearGradient><linearGradient id="linear-gradient-29" x1="1.678" y1="5.372" x2="2.244" y2="6.071" xlink:href="#linear-gradient-28"></linearGradient><radialGradient id="radial-gradient-6" cx="0.501" cy="0.502" r="0.635" gradientTransform="matrix(0.665, -0.04, 0.027, 0.999, 0.542, 0.094)" gradientUnits="objectBoundingBox"><stop offset="0" stop-color="#39b54a"></stop><stop offset="1" stop-color="#006838"></stop></radialGradient><linearGradient id="linear-gradient-30" x1="0.083" y1="0.276" x2="0.955" y2="0.632" xlink:href="#linear-gradient-14"></linearGradient><linearGradient id="linear-gradient-31" x1="0.389" y1="-0.079" x2="0.544" y2="0.741" xlink:href="#linear-gradient-12"></linearGradient><linearGradient id="linear-gradient-32" y1="0.5" x2="1" y2="0.5" gradientUnits="objectBoundingBox"><stop offset="0" stop-color="#fff"></stop><stop offset="0.129" stop-color="#dddcdd"></stop><stop offset="0.446" stop-color="#8e8c8d"></stop><stop offset="0.707" stop-color="#545152"></stop><stop offset="0.898" stop-color="#312d2e"></stop><stop offset="1" stop-color="#231f20"></stop></linearGradient><radialGradient id="radial-gradient-7" cx="0.339" cy="0.539" r="2.133" gradientTransform="translate(0.305) scale(0.39 1)" xlink:href="#linear-gradient-32"></radialGradient><linearGradient id="linear-gradient-33" x1="0.371" y1="-0.042" x2="0.644" y2="1.105" xlink:href="#linear-gradient-24"></linearGradient><linearGradient id="linear-gradient-34" x1="0.481" y1="1.4" x2="0.515" y2="-0.199" xlink:href="#linear-gradient-27"></linearGradient><linearGradient id="linear-gradient-35" x1="0.654" y1="1.047" x2="0.487" y2="0.57" gradientUnits="objectBoundingBox"><stop offset="0" stop-color="#f3445e"></stop><stop offset="1" stop-color="#cb2f4c"></stop></linearGradient><linearGradient id="linear-gradient-36" y1="0.5" x2="1" y2="0.5" gradientUnits="objectBoundingBox"><stop offset="0" stop-color="#facf65"></stop><stop offset="1" stop-color="#f8a82e"></stop></linearGradient><linearGradient id="linear-gradient-37" x1="0.601" y1="-0.253" x2="0.407" y2="1.288" xlink:href="#linear-gradient-14"></linearGradient><linearGradient id="linear-gradient-38" y1="0.5" x2="1" y2="0.5" gradientUnits="objectBoundingBox"><stop offset="0" stop-color="#facf65"></stop><stop offset="1" stop-color="#f88c2e"></stop></linearGradient><linearGradient id="linear-gradient-39" x1="0.48" y1="0.425" x2="0.586" y2="0.844" xlink:href="#linear-gradient-36"></linearGradient><linearGradient id="linear-gradient-40" x1="0.484" y1="0.031" x2="0.516" y2="0.965" xlink:href="#linear-gradient-35"></linearGradient><linearGradient id="linear-gradient-41" x1="0.014" y1="1.108" x2="0.575" y2="0.245" xlink:href="#linear-gradient-38"></linearGradient><linearGradient id="linear-gradient-42" x1="0.597" y1="-0.073" x2="0.456" y2="0.759" gradientUnits="objectBoundingBox"><stop offset="0" stop-color="#facf65"></stop><stop offset="1" stop-color="#c75116"></stop></linearGradient><linearGradient id="linear-gradient-43" x1="0.561" y1="0.67" x2="0.401" y2="0.871" xlink:href="#linear-gradient-36"></linearGradient><linearGradient id="linear-gradient-44" x1="0.969" y1="0.622" x2="0.163" y2="0.377" xlink:href="#linear-gradient-20"></linearGradient><radialGradient id="radial-gradient-8" cx="0.495" cy="0.5" r="0.5" gradientTransform="matrix(0.953, 0.302, -0.302, 0.953, -77.996, 113.931)" xlink:href="#radial-gradient"></radialGradient><radialGradient id="radial-gradient-9" cx="0.5" cy="0.5" r="0.502" gradientTransform="matrix(1, 0.021, -0.021, 1, 0.108, 6.093)" xlink:href="#radial-gradient-2"></radialGradient><radialGradient id="radial-gradient-10" cx="0.511" cy="0.508" r="0.5" gradientTransform="matrix(0.965, 0.262, -0.262, 0.965, -58.593, 113.015)" xlink:href="#radial-gradient"></radialGradient><radialGradient id="radial-gradient-11" cx="0.503" cy="0.496" r="0.502" gradientTransform="matrix(1, -0.021, 0.021, 1, -0.735, -7.8)" xlink:href="#radial-gradient-2"></radialGradient><linearGradient id="linear-gradient-45" x1="0" y1="0.5" x2="1" y2="0.5" xlink:href="#linear-gradient-35"></linearGradient><linearGradient id="linear-gradient-46" x1="0.64" y1="0.294" x2="0.101" y2="0.971" xlink:href="#linear-gradient-24"></linearGradient><linearGradient id="linear-gradient-47" x1="0.526" y1="1.054" x2="0.479" y2="0.055" xlink:href="#linear-gradient-27"></linearGradient><linearGradient id="linear-gradient-48" x1="-210.177" y1="-9.693" x2="-209.57" y2="-10.268" xlink:href="#linear-gradient-28"></linearGradient><linearGradient id="linear-gradient-49" x1="-141.907" y1="-2.752" x2="-141.34" y2="-2.053" xlink:href="#linear-gradient-28"></linearGradient><radialGradient id="radial-gradient-12" cx="0.471" cy="0.408" r="0.636" gradientTransform="matrix(-0.665, -0.04, -0.027, 0.999, -263.447, -6.332)" xlink:href="#radial-gradient-6"></radialGradient><linearGradient id="linear-gradient-50" x1="0.871" y1="0.535" x2="0.1" y2="0.482" xlink:href="#linear-gradient-14"></linearGradient><linearGradient id="linear-gradient-51" x1="0.63" y1="-0.017" x2="0.47" y2="0.648" xlink:href="#linear-gradient-36"></linearGradient><linearGradient id="linear-gradient-52" x1="-327.776" y1="0.5" x2="-326.775" y2="0.5" xlink:href="#linear-gradient-32"></linearGradient><radialGradient id="radial-gradient-13" cx="0.797" cy="0.272" r="2.385" gradientTransform="translate(0.305) scale(0.39 1)" xlink:href="#linear-gradient-32"></radialGradient><linearGradient id="linear-gradient-53" x1="0.603" y1="-0.07" x2="0.386" y2="1.132" xlink:href="#linear-gradient-24"></linearGradient><linearGradient id="linear-gradient-54" x1="0.526" y1="1.287" x2="0.479" y2="-0.135" xlink:href="#linear-gradient-27"></linearGradient></defs><g id="_18316_Converted_" data-name="18316 [Converted]" transform="translate(0 0)"><g id="BG" transform="translate(0 0)"><path id="Path_280" data-name="Path 280" d="M484.716,412.577c-75.7,16.306-166.887,13.671-217.929,11.632-35.35-1.411-70.769-5.39-105.716-10.17-29.994-4.089-70.853-10.628-88.732-35.507-38.512-53.564,79.583-69.777,57.3-115.2-6.581-13.416-26.273-16.315-42.6-15.544S52.49,250.6,39.718,241.457c-27.256-19.527-4.1-56.157,11.742-74.79C108.88,99.145,194.243,48.344,286.852,27.338c44.669-10.128,93.965-14.772,140.571-8.407,25.922,3.538,56.784,7.806,78.062,22.854A29.4,29.4,0,0,1,519.122,63c.462,8.958-5.17,17.315-11.967,23.892s-14.929,12.018-21.311,18.925a52.661,52.661,0,0,0-13.137,46.7c14.243,64.073,127.252,63.293,137.189,136.3C619.77,361.518,559.883,396.39,484.716,412.577Z" transform="translate(-27.127 -16.02)" fill="url(#linear-gradient)"></path></g><g id="Object" transform="translate(66.491 170.118)"><g id="Group_128" data-name="Group 128" transform="translate(49.866)" opacity="0.5"><path id="Path_281" data-name="Path 281" d="M88.359,87.023c0-8.9,9.145-9.819,15.963-16h-.055l.373-3.335a2.064,2.064,0,0,1,.178-4.119,1.991,1.991,0,0,1,.225,0,1.64,1.64,0,1,0,1.826,1.826,1.935,1.935,0,0,1,0,.225,2.064,2.064,0,0,1-1.89,2.055l.377,3.335h-.042c6.814,6.2,15.959,7.115,15.959,16.014v105.4H88.359Z" transform="translate(58.763 -32.208)" fill="url(#linear-gradient-2)"></path><path id="Path_282" data-name="Path 282" d="M112.539,129.318l-.424-20.993c2.348-1.373,4.348-2.589,4.348-5.547v-.119h0v-2.543h-5l-2.369-20.451a1.449,1.449,0,0,0-.538-2.543l-.076-1.479a.97.97,0,0,0,.636-.907.958.958,0,0,0-.733-.924l-.076-1.411a.581.581,0,0,0,.424-.559.593.593,0,0,0-1.182,0,.58.58,0,0,0,.424.559l-.076,1.411a.958.958,0,0,0-.733.924.97.97,0,0,0,.636.907l-.076,1.479a1.449,1.449,0,0,0-.538,2.543l-2.377,20.451h-5v2.543h0v.1c0,2.966,2,4.174,4.344,5.547l-.424,20.993H98.178v3.06h0v.123c0,3.594,2.466,5.034,5.327,6.708l-.479,23a.877.877,0,0,1-.873.848.873.873,0,0,0-.877.873v28.879h13.7V163.94a.873.873,0,0,0-.877-.873h0a.877.877,0,0,1-.873-.848l-.483-23c2.865-1.674,5.331-3.115,5.331-6.708v-.123h0v-3.06Zm3.39-28.748v2.119h-1.271V100.57Zm-1.788,0v2.119H112.87V100.57Zm-1.792,0v2.119h-.593l-.246-2.119Zm-12,2.119V100.57h1.271v2.119Zm1.788,0V100.57h1.271v2.119Zm1.788-2.119h.848l-.246,2.119h-.6Zm-5.085,31.808v-2.517h1.509v2.517Zm2.119,0v-2.517h1.513v2.517Zm2.14,0v-2.517h.61l-.051,2.517Zm9.513,0-.055-2.517h.614v2.517Zm1.187,0v-2.517h1.513v2.517Zm3.653,0h-1.509v-2.517h1.509Z" transform="translate(90.554 -7.163)" fill="url(#linear-gradient-3)"></path><path id="Path_283" data-name="Path 283" d="M81.69,169.582l-.848-41.016c4.585-2.678,8.475-5.051,8.475-10.831v-.2h0v-5H79.554L74.935,72.612a2.886,2.886,0,0,0-1.055-5l-.153-2.86a1.865,1.865,0,0,0-.191-3.572l-.153-2.746a1.157,1.157,0,1,0-.644,0L72.6,61.187a1.865,1.865,0,0,0-.191,3.572l-.153,2.86a2.886,2.886,0,0,0-1.055,5l-4.619,39.919H56.815v5h0v.2c0,5.78,3.907,8.153,8.475,10.831l-.848,41.016h-10.8v5.971h0v.242c0,7.018,4.814,9.836,10.408,13.1l-.941,44.919a1.7,1.7,0,0,1-1.7,1.67,1.7,1.7,0,0,0-1.7,1.7v32.757H86.491V237.189a1.7,1.7,0,0,0-1.7-1.7h0a1.7,1.7,0,0,1-1.7-1.67l-.937-44.919c5.589-3.267,10.4-6.085,10.4-13.1v-.242h0v-5.979ZM88.3,113.42v4.115H85.826V113.42Zm-3.5,0v4.115H82.33V113.42Zm-3.5,0v4.115H80.135l-.479-4.115Zm-23.455,4.115V113.42h2.471v4.115Zm3.5,0V113.42h2.466v4.115Zm3.5-4.115h1.644l-.475,4.115h-1.17ZM54.87,175.561v-4.92h2.966v4.92Zm4.183,0v-4.92h2.966v4.92Zm4.183,0v-4.92h1.191l-.1,4.92Zm18.582,0-.1-4.92h1.191v4.92Zm2.322,0v-4.92h2.966v4.92Zm7.132,0H88.3v-4.92h2.966Z" transform="translate(-53.641 -56.165)" fill="url(#linear-gradient-4)"></path><path id="Path_284" data-name="Path 284" d="M250.45,203.922h-4.276V177.157a26.761,26.761,0,0,1-21.269-10.908,48.707,48.707,0,0,0-14.552-14.035,51.815,51.815,0,0,0,.619-8c0-27.473-28.214-30.3-49.254-49.39h.17l-1.136-10.289a6.356,6.356,0,0,0,5.831-6.356,6.246,6.246,0,0,0-.038-.695,5.085,5.085,0,1,1-5.64-5.64,6.252,6.252,0,0,0-.695-.038,6.362,6.362,0,1,0-.538,12.713L158.51,94.811h.17c-21.04,19.069-49.258,21.913-49.258,49.385a52.125,52.125,0,0,0,.682,8.352,46.653,46.653,0,0,0-14.561,13.56l-.339.483A27.3,27.3,0,0,1,74.22,177.132v26.773H69.94a9.9,9.9,0,0,0-9.908,9.9v5.509H260.379v-5.509A9.908,9.908,0,0,0,250.45,203.922Z" transform="translate(-32.949 -5.532)" fill="url(#linear-gradient-5)"></path><path id="Path_285" data-name="Path 285" d="M62.928,102.589c0-6.912,7.1-7.628,12.391-12.42h-.042l.292-2.589a1.6,1.6,0,0,1,.136-3.2h.178A1.271,1.271,0,1,0,77.3,85.8a1.166,1.166,0,0,1,0,.174,1.61,1.61,0,0,1-1.471,1.6l.292,2.589h-.042c5.293,4.8,12.391,5.509,12.391,12.425v76.036H62.915Z" transform="translate(-23.615 35.186)" fill="url(#linear-gradient-6)"></path><path id="Path_286" data-name="Path 286" d="M124.763,90.665c0-7.251,7.45-8,13-13.031h-.047l.305-2.716a1.7,1.7,0,0,1,.144-3.356,1.272,1.272,0,0,1,.182,0,1.339,1.339,0,1,0,1.487,1.487,1.248,1.248,0,0,1,0,.182A1.7,1.7,0,0,1,138.3,74.9l.305,2.716h-.047c5.551,5.034,13,5.78,13,13.031V176.5h-26.8Z" transform="translate(176.584 -6.326)" fill="url(#linear-gradient-7)"></path><path id="Path_287" data-name="Path 287" d="M157.821,163.64l-.775-37.147c4.153-2.428,7.687-4.577,7.687-9.81V116.5h0v-4.534h-8.848L151.7,75.811a2.615,2.615,0,0,0-.958-4.53l-.136-2.589a1.7,1.7,0,0,0-.174-3.233l-.131-2.5a1.038,1.038,0,0,0-.292-2.038,1.051,1.051,0,0,0-1.047,1.047,1.038,1.038,0,0,0,.754.992l-.131,2.5a1.7,1.7,0,0,0-.169,3.233l-.14,2.589a2.615,2.615,0,0,0-.954,4.53l-4.187,36.156H135.3V116.5h0v.182c0,5.234,3.534,7.382,7.687,9.81l-.771,37.147h-9.793v5.416h0v.22c0,6.356,4.361,8.9,9.425,11.865l-.848,40.7a1.551,1.551,0,0,1-1.551,1.513,1.551,1.551,0,0,0-1.551,1.551v29.663h24.248V224.908a1.551,1.551,0,0,0-1.551-1.551h0a1.551,1.551,0,0,1-1.551-1.513l-.848-40.7c5.064-2.966,9.425-5.509,9.425-11.865v-.22h0V163.64Zm5.979-50.852v3.729h-2.229v-3.729Zm-3.17,0v3.729H158.4v-3.729Zm-3.165,0v3.729H156.41l-.424-3.729Zm-21.243,3.729v-3.729h2.237v3.729Zm3.17,0v-3.729h2.233v3.729Zm3.166-3.729h1.487l-.424,3.729h-1.059Zm-9.03,56.284V164.6H136.2v4.454Zm3.788,0V164.6h2.67v4.454Zm3.789,0V164.6h1.081l-.093,4.454Zm16.828,0-.093-4.454h1.085v4.454Zm2.119,0V164.6h2.67v4.454Zm6.458,0h-2.674V164.6h2.674Z" transform="translate(201.42 -40.756)" fill="url(#linear-gradient-8)"></path><path id="Path_288" data-name="Path 288" d="M256.756,185.867h-3.483v-21.8a21.781,21.781,0,0,1-17.319-8.9,39.806,39.806,0,0,0-11.866-11.442,42.815,42.815,0,0,0,.5-6.509c0-22.375-22.976-24.68-40.109-40.219h.136l-.941-8.378a5.187,5.187,0,0,0,4.746-5.166,5,5,0,0,0-.03-.568A4.127,4.127,0,1,1,183.8,78.3a4.9,4.9,0,0,0-.564-.034,5.187,5.187,0,0,0-.424,10.357L181.869,97h.14c-17.133,15.539-40.113,17.84-40.113,40.215a42.293,42.293,0,0,0,.555,6.78,37.994,37.994,0,0,0-11.865,11.039l-.275.394a22.243,22.243,0,0,1-17.09,8.585v21.8h-3.483a8.052,8.052,0,0,0-8.052,8.052v4.5H264.833v-4.492a8.051,8.051,0,0,0-8.077-8Z" transform="translate(101.905 15.388)" fill="url(#linear-gradient-9)"></path><path id="Path_289" data-name="Path 289" d="M104.043,103.347c0-5.628,5.78-6.208,10.094-10.115H114.1l.237-2.119a1.305,1.305,0,0,1,.114-2.606h.14a1.038,1.038,0,1,0,1.157,1.157v.144a1.3,1.3,0,0,1-1.2,1.3l.237,2.119h-.034c4.31,3.907,10.09,4.488,10.09,10.115v61.92H104.034Z" transform="translate(109.513 48.547)" fill="url(#linear-gradient-10)"></path></g><path id="Path_290" data-name="Path 290" d="M460.27,189.984H16.53L94.164,96.866H382.645Z" transform="translate(-8.973 143.498)" fill="url(#linear-gradient-11)"></path><g id="Group_129" data-name="Group 129" transform="translate(236.618 243.184)"><path id="Path_292" data-name="Path 292" d="M172.79,117.884s49.737,17.887,39.058,47.767c-12.866,10.111-98.834,2.543-112.128-22.315S142.3,106.485,172.79,117.884Z" transform="translate(-97.711 -113.552)" fill="url(#linear-gradient-12)"></path></g><g id="Group_130" data-name="Group 130" transform="translate(254.887 246.808)"><path id="Path_293" data-name="Path 293" d="M102.069,114.408s-1.161,15.679,8.107,15.785C117.273,127.553,116.71,114.268,102.069,114.408Z" transform="translate(-102.022 -114.407)" fill="url(#linear-gradient-13)"></path></g><path id="Path_294" data-name="Path 294" d="M131.017,119.461a2.118,2.118,0,0,0-.636-.805c-1.314-1.191-2.737-2.246-4-3.488-.631-.627-1.47-2.034-2.543-1.458a58.6,58.6,0,0,1-5.238,2.8,18.223,18.223,0,0,1-5.344.687,33.525,33.525,0,0,0-8.552,2.072l-.064.025-.339.114v.021a13.892,13.892,0,0,0-2.928,1.538c-1.178.8-2.805,1.826-3.212,3.288a6.858,6.858,0,0,0-.14,2,16.292,16.292,0,0,0,.14,1.759,30.593,30.593,0,0,0,1.14,5.085c.2.657,1.86,1.7,2.191-.394.051-.61.068-1.6.042-2.682.089.271.165.547.267.814a33.594,33.594,0,0,0,1.7,3.716,1.407,1.407,0,0,0,.937.589c.093.343.174.691.275,1.03a1.4,1.4,0,0,0,1.233.822v.326c.059.687,1.47,2.043,2.229.072a29.158,29.158,0,0,0,1.085-7.268,20.722,20.722,0,0,0,4.852-2.187,16.951,16.951,0,0,0-.848,6.31,7.526,7.526,0,0,0,.1,1.11,1.572,1.572,0,0,0,.848,1.178,1.8,1.8,0,0,0,2.089-1.038c1.115-2.017,1.365-4.238,2.543-6.314a22.768,22.768,0,0,1,3.068-2.924,17.114,17.114,0,0,1,4.394-3.276,30.5,30.5,0,0,0,4.115-1.992A1.339,1.339,0,0,0,131.017,119.461Z" transform="translate(139.85 129.708)" fill="url(#linear-gradient-14)"></path><g id="Group_131" data-name="Group 131" transform="translate(254.929 151.785)"><path id="Path_295" data-name="Path 295" d="M159.465,91.983a22.43,22.43,0,0,0-12.62,12.289c-4.572,9.942-5.56,43.037-10.594,53.394-4.928,10.17-23.676,22.527-34.219,29.312,4.517-1.763,15.679,8.823,8.933,15.256,16.1-9.145,36.469-25.027,39.313-32.456s14.145-41.622,12.938-51.487S159.465,91.983,159.465,91.983Z" transform="translate(-102.032 -91.983)" fill="url(#linear-gradient-15)"></path></g><g id="Group_132" data-name="Group 132" transform="translate(304.758 148.348)"><path id="Path_296" data-name="Path 296" d="M155.63,93.409c-25.888-6.356-37.668,2.852-37.668,2.852l.089,17.218a204.253,204.253,0,0,0,4.238,99.8c13.849,24.388,69.98,4.051,74.794-19.069C188.438,170.839,177.526,100.156,155.63,93.409Z" transform="translate(-113.791 -91.172)" fill="url(#linear-gradient-16)"></path></g><g id="Group_133" data-name="Group 133" transform="translate(301.214 247.662)"><path id="Path_297" data-name="Path 297" d="M198.261,115.62,186.29,122c-26.087-17.006-84.693-2.593-71.4,22.248s72.04,27.333,84.922,17.226C217.78,147.351,198.261,115.62,198.261,115.62Z" transform="translate(-112.954 -114.608)" fill="url(#linear-gradient-17)"></path></g><g id="Group_134" data-name="Group 134" transform="translate(342.119 222.998)"><path id="Path_298" data-name="Path 298" d="M122.607,132.943s42.847,5.187,44.4,20.544-8.84,27.206-8.581,30.905c0,0,18.146-1.449,17.629-23.782s-11.268-17.535-13.955-51.822C146.012,111.11,122.607,132.943,122.607,132.943Z" transform="translate(-122.607 -108.788)" fill="url(#linear-gradient-18)"></path></g><g id="Group_135" data-name="Group 135" transform="translate(322.622 163.591)"><path id="Path_299" data-name="Path 299" d="M118.268,95.269a239.383,239.383,0,0,0,.623,31.757c1.665,2.568,3.187,2.246,3.187,2.246s1.915-1.606,1.564-2.649-.759-28.392,1.089-31.359a36.766,36.766,0,0,1-6.721-.5" transform="translate(-118.006 -94.769)" fill="url(#linear-gradient-19)"></path></g><path id="Path_300" data-name="Path 300" d="M125.049,107.494a9.624,9.624,0,0,1-7.2-3.848,9.746,9.746,0,0,1-.987-7.242c.564-3.983,6.217-5.395,10.882-5.395,5.373,0,11.272,1.852,12.158,5.4a7,7,0,0,1-1.271,6.221,16.607,16.607,0,0,1-12.942,4.873Z" transform="translate(199.924 56.651)" fill="url(#linear-gradient-20)"></path><path id="Path_301" data-name="Path 301" d="M119.732,109.2s-4.488,16.8,1.975,18.93C129.487,121.814,128.284,107.11,119.732,109.2Z" transform="translate(205.292 114.888)" fill="#fff"></path><g id="Group_136" data-name="Group 136" transform="translate(325.024 151.467)"><path id="Path_302" data-name="Path 302" d="M158.275,102.672a53.666,53.666,0,0,0-15.993-10.764v16.527c.6,23.1,11.531,43.368,11.637,47.462a126.479,126.479,0,0,0-35.346,8.619c1.915.559,7.128,13.018,1.6,18.773,6.632,1.7,57.767-10.259,57.755-22.917C177.917,152.15,162.606,108.21,158.275,102.672Z" transform="translate(-118.573 -91.908)" fill="url(#linear-gradient-21)"></path></g><path id="Path_303" data-name="Path 303" d="M139.2,147.777a14.48,14.48,0,0,1-1.462-.068,30.549,30.549,0,0,1-21.654-13.649,26.968,26.968,0,0,1-2.153-24.5c-.945-11.319,1.271-19.98,6.53-25.706a26.223,26.223,0,0,1,20.218-7.628q1.932,0,3.954.174a34.189,34.189,0,0,1,23.883,14.116,40.4,40.4,0,0,1,8.344,27.252C176.121,137.268,149.8,147.777,139.2,147.777Z" transform="translate(185.008 8.609)" fill="url(#linear-gradient-22)"></path><path id="Path_304" data-name="Path 304" d="M138.608,88.544c-.945-7.823-10.531-2.682-10.853-1.937l-1.932,14.734C131.472,103.528,139.553,96.371,138.608,88.544Z" transform="translate(229.924 34.802)" fill="url(#linear-gradient-23)"></path><g id="Group_137" data-name="Group 137" transform="translate(283.852 77.842)"><path id="Path_305" data-name="Path 305" d="M190.482,96.6c-3.975-9.429-18.7-24.93-38.592-21.612a32.3,32.3,0,0,0-22.413,14.484,11.018,11.018,0,0,0-11.2,2.165,8.937,8.937,0,0,1,7.107-.284c-3.1-.284-19.192,3.814-16.15,14.01,1.7,5.085,9.56,3.619,13.137-.983-.547,2.458,2.856,2.763,5.369-1.5s6.89,2.343,13.243-6.407c0,3.733,7.2,5.717,16.951-3.259,0,0-2.305,4.14,5.822,10.831C166.726,107.1,172.1,107.4,175,113.8s1.271,11.3,6.28,13.226c.691.03-.661-5.606,2.793-8.958a9.025,9.025,0,0,1,2.568-1.538,5.839,5.839,0,0,1,4.975-.136A33.973,33.973,0,0,0,190.482,96.6Z" transform="translate(-108.857 -74.534)" fill="url(#linear-gradient-24)"></path></g><path id="Path_308" data-name="Path 308" d="M118.019,91.476a7.874,7.874,0,1,0,7.145-9,8.132,8.132,0,0,0-7.145,9Z" transform="translate(204.488 28.946)" fill="#febb96"></path><path id="Path_309" data-name="Path 309" d="M118.274,90.463a6.78,6.78,0,1,0,6.225-7.2,6.78,6.78,0,0,0-6.225,7.2Z" transform="translate(205.424 31.485)" fill="#781415"></path><path id="Path_310" data-name="Path 310" d="M118.435,90.1a6.166,6.166,0,1,0,1.426-4.5,6.145,6.145,0,0,0-1.426,4.5Z" transform="translate(205.928 32.036)" fill="#fff"></path><path id="Path_311" data-name="Path 311" d="M118.99,88.721a3.7,3.7,0,1,0,.748-2.734,3.7,3.7,0,0,0-.748,2.734Z" transform="translate(207.707 35.756)" fill="url(#radial-gradient)"></path><path id="Path_312" data-name="Path 312" d="M119.253,87.7a2.543,2.543,0,1,0,.514-1.888A2.543,2.543,0,0,0,119.253,87.7Z" transform="translate(208.585 36.635)" fill="url(#radial-gradient-2)"></path><path id="Path_313" data-name="Path 313" d="M119.13,86.039a.767.767,0,1,0,.665-.847A.767.767,0,0,0,119.13,86.039Z" transform="translate(208.238 37.794)" fill="#fff"></path><path id="Path_314" data-name="Path 314" d="M120.01,86.44a.424.424,0,1,0,.084-.325.424.424,0,0,0-.084.325Z" transform="translate(211.087 40.271)" fill="#fff"></path><path id="Path_315" data-name="Path 315" d="M128.412,88.611a.526.526,0,0,0,.216-.165c.763-.979-1.191-3.238-1.826-3.911a7.6,7.6,0,0,0-4.772-2.441c-.975-.076-2.877.123-2.767,1.483a1.178,1.178,0,0,0,1.381,1.123h.225a7.331,7.331,0,0,1,6.234,2.826C127.318,87.776,127.912,88.781,128.412,88.611Z" transform="translate(208.669 27.738)" fill="#781415"></path><path id="Path_316" data-name="Path 316" d="M127.918,91.976a7.874,7.874,0,1,1-6.009-9.793,8.132,8.132,0,0,1,6.009,9.793Z" transform="translate(186.626 27.547)" fill="#febb96"></path><path id="Path_317" data-name="Path 317" d="M126.054,90.825a6.78,6.78,0,1,1-5.318-7.891A6.78,6.78,0,0,1,126.054,90.825Z" transform="translate(187.142 30.067)" fill="#781415"></path><path id="Path_318" data-name="Path 318" d="M124.909,90.382a6.145,6.145,0,1,1-4.772-7.285,6.145,6.145,0,0,1,4.772,7.285Z" transform="translate(187.601 30.62)" fill="#fff"></path><path id="Path_319" data-name="Path 319" d="M113.331,88.152a3.7,3.7,0,1,0,.863-2.706,3.7,3.7,0,0,0-.863,2.706Z" transform="translate(189.437 34.406)" fill="url(#radial-gradient-3)"></path><path id="Path_320" data-name="Path 320" d="M113.6,87.174a2.543,2.543,0,1,0,.592-1.862A2.543,2.543,0,0,0,113.6,87.174Z" transform="translate(190.314 35.286)" fill="url(#radial-gradient-4)"></path><path id="Path_321" data-name="Path 321" d="M113.487,85.576a.768.768,0,1,0,.7-.828.767.767,0,0,0-.7.828Z" transform="translate(189.976 36.367)" fill="#fff"></path><path id="Path_322" data-name="Path 322" d="M114.338,86.016a.424.424,0,1,0,.1-.32.424.424,0,0,0-.1.32Z" transform="translate(192.731 38.957)" fill="#fff"></path><path id="Path_323" data-name="Path 323" d="M113.043,87.358a.487.487,0,0,1-.195-.191c-.64-1.064,1.572-3.072,2.284-3.661a7.6,7.6,0,0,1,5.03-1.852c.979.042,2.839.47,2.568,1.809a1.182,1.182,0,0,1-1.509.949l-.216-.051a7.34,7.34,0,0,0-6.53,2.055C114.229,86.667,113.509,87.591,113.043,87.358Z" transform="translate(187.543 26.36)" fill="#781415"></path><path id="Path_324" data-name="Path 324" d="M119.658,84.482a20.34,20.34,0,0,1-4.691,10.632,5.75,5.75,0,0,0,2.966,2.657" transform="translate(194.776 35.516)" fill="#fecaad"></path><path id="Path_325" data-name="Path 325" d="M115,87s7.458.076,7.738,2.284C122.8,90.882,117.212,90.716,115,87Z" transform="translate(194.883 43.668)" fill="#febb96"></path><path id="Path_326" data-name="Path 326" d="M118.276,97.749a5.653,5.653,0,0,1-3.2-2.691L115,94.914l.114-.119a18.646,18.646,0,0,0,4.411-10.255l.449.03a19.171,19.171,0,0,1-4.428,10.395,5.187,5.187,0,0,0,2.865,2.335Z" transform="translate(194.883 35.704)" fill="#febb96"></path><g id="Group_138" data-name="Group 138" transform="translate(304.467 76.053)"><path id="Path_327" data-name="Path 327" d="M175.854,117.769s-13.505-33.507-62.132-26.926c9.963-20.506,36.952-18.506,46.991-13.065C176.231,86.194,181.609,106.209,175.854,117.769Z" transform="translate(-113.722 -74.112)" fill="url(#linear-gradient-25)"></path></g><path id="Path_328" data-name="Path 328" d="M118.469,88.467c-.186.254-.661-.14-1.271-.589s-1.14-.784-.953-1.038a1.528,1.528,0,0,1,2.225,1.627Z" transform="translate(198.788 42.473)" fill="#fff"></path><path id="Path_329" data-name="Path 329" d="M114.223,90.167s7.259,2.924,20.667-1.865c-5.259,11.865-13.679,9.3-15.421,8.954S119.325,93.9,114.223,90.167Z" transform="translate(192.367 47.884)" fill="#781415"></path><path id="Path_330" data-name="Path 330" d="M126.517,90.176c-8.2-1.314-11.209,1.7-11.209,1.7a.991.991,0,0,0,.648.4,11.552,11.552,0,0,0,10.56-2.093Z" transform="translate(195.88 52.875)" fill="#cf3422"></path><path id="Path_331" data-name="Path 331" d="M114.975,90.54a26.4,26.4,0,0,0,1.915,3.047A17.489,17.489,0,0,0,131.184,88.4,37.426,37.426,0,0,1,114.975,90.54Z" transform="translate(194.802 48.201)" fill="#fff"></path><path id="Path_332" data-name="Path 332" d="M117.418,86.264c-.3,1.182-1.154,1.983-1.912,1.793s-1.134-1.3-.836-2.484,1.153-1.983,1.912-1.792S117.714,85.083,117.418,86.264Z" transform="translate(198.946 41.173)" opacity="0.33" fill="url(#radial-gradient-5)"></path><g id="Group_141" data-name="Group 141" transform="translate(230.508 211.789)"><g id="Group_139" data-name="Group 139" transform="translate(4.191)"><path id="Path_333" data-name="Path 333" d="M175.127,186.453l27.409-14.912L100.744,90.123l-30.613,9Z" transform="translate(-70.131 -90.123)" fill="url(#linear-gradient-26)"></path></g><g id="Group_140" data-name="Group 140" transform="translate(0 9.001)"><path id="Path_334" data-name="Path 334" d="M73.333,92.247l-4.191,6.479,105,87.329,4.183-6.479Z" transform="translate(-69.142 -92.247)" fill="url(#linear-gradient-27)"></path></g></g><path id="Path_335" data-name="Path 335" d="M112.9,107.538a132.1,132.1,0,0,1,44.919,35.8c.267-1.237,26.273-22.315,50.585-27.341a3.2,3.2,0,0,1,1.136,0,39.668,39.668,0,0,1,8.9,5.339,2.373,2.373,0,0,1,.165,4.064c-10.289,6.759-45.067,22.519-62.636,30.274a2.365,2.365,0,0,1-2.691-.551c-17.442-18.938-44.071-35.325-53.661-41.2a2.373,2.373,0,0,1,.237-4.178,23.307,23.307,0,0,1,12.488-2.36A2.38,2.38,0,0,1,112.9,107.538Z" transform="translate(141.399 109.354)" fill="#6b1049"></path><path id="Path_336" data-name="Path 336" d="M98.471,115.243a82.705,82.705,0,0,1,26.854-9.386,67.582,67.582,0,0,1,12.153,2.839l-31.4,8.242Z" transform="translate(141.368 104.721)" fill="#f9d0ac"></path><path id="Path_337" data-name="Path 337" d="M98.471,115.243a82.705,82.705,0,0,1,26.854-9.386,67.582,67.582,0,0,1,12.153,2.839l-31.4,8.242Z" transform="translate(141.368 104.721)" opacity="0.29" fill="url(#linear-gradient-28)"></path><path id="Path_338" data-name="Path 338" d="M102.372,110.016s7.56-2,15.573-3.767,34.325,19.1,40.906,28.248c5.509,7.568-14.06,13.268-14.06,13.268Z" transform="translate(153.998 105.647)" fill="#f9d0ac"></path><path id="Path_339" data-name="Path 339" d="M102.372,110.016s7.56-2,15.573-3.767,34.325,19.1,40.906,28.248c5.331,7.729-14.06,13.268-14.06,13.268Z" transform="translate(153.998 105.647)" opacity="0.29" fill="url(#linear-gradient-29)"></path><path id="Path_340" data-name="Path 340" d="M144.335,140.632l-.03-.038A122.644,122.644,0,0,0,116,115.677a63.662,63.662,0,0,0-12.526-6.238l-.178-.051.178-.051a118.117,118.117,0,0,1,13.391-2.9,1.28,1.28,0,0,1,.186,0c11.137,2.746,34.189,23.349,37.592,27.829l.034.047-.047.03-.848.47a84.932,84.932,0,0,0-9.4,5.784ZM103.675,109.4a66.1,66.1,0,0,1,12.378,6.187,120.447,120.447,0,0,1,28.3,24.909,85.213,85.213,0,0,1,9.374-5.759l.8-.424c-3.526-4.568-26.422-25-37.49-27.744h-.182a114.294,114.294,0,0,0-13.179,2.831Z" transform="translate(156.996 106.592)" fill="url(#radial-gradient-6)"></path><path id="Path_341" data-name="Path 341" d="M156.482,130.175a48.493,48.493,0,0,1-8.5-1.793,27.685,27.685,0,0,0-4.555-1.034,1.84,1.84,0,0,1-.458-.115A27.243,27.243,0,0,1,131.6,121.3a3.961,3.961,0,0,0-1.7-.352,11.441,11.441,0,0,0-2.335.347,17.319,17.319,0,0,1-3.492.487c-2.038-.055-2.543-.542-2.589-.941-.072-.475.462-.924.754-1.025a28.605,28.605,0,0,0,5.984-1.894,19.488,19.488,0,0,1-6.034,1.348c-1.153,0-1.822-.288-2-.848-.3-1.174,3.132-2.369,8.018-3.928a1.684,1.684,0,0,0,.5-.229l-.326.034-1.733.517a27.117,27.117,0,0,1-6.157,1.449c-.97,0-1.475-.335-1.547-1.021a.8.8,0,0,1,.254-.589,23.99,23.99,0,0,1,7.874-3.42,50.317,50.317,0,0,0-5.763,1.229,59.231,59.231,0,0,1-9.747,1.911c-.623,0-.979-.11-1.076-.335a.631.631,0,0,1,.034-.555c.792-1.581,7.6-4.072,17.336-6.356a6.928,6.928,0,0,1,1.36-.131c5.085,0,11.374,4.945,14.679,7.89a7.887,7.887,0,0,1,.729.716h0a20.765,20.765,0,0,0,7.34,1.432,13.692,13.692,0,0,0,6.356-1.445,3.114,3.114,0,0,1,1.411-.4,1.877,1.877,0,0,1,1.674,1.068,14.229,14.229,0,0,1-1.271,11.348c-.979,1.7-2.148,2.593-3.39,2.593Z" transform="translate(180.098 108.418)" fill="url(#linear-gradient-30)"></path><g id="Group_142" data-name="Group 142" transform="translate(325.024 215.389)"><path id="Path_342" data-name="Path 342" d="M153.919,107.071c-4.95-.848-28.939,5.322-35.346,8.619,1.915.559,7.128,13.018,1.6,18.773,6.632,1.7,57.767-10.259,57.755-22.917Z" transform="translate(-118.573 -106.992)" fill="url(#linear-gradient-31)"></path></g><path id="Path_343" data-name="Path 343" d="M125.111,109.951s18.294-4.051,24.68,2.89c-13.1,8.5-18.557,5.589-18.557,5.589Z" transform="translate(227.619 114.17)" fill="#f9d0ac"></path><g id="Group_143" data-name="Group 143" transform="translate(352.73 222.946)" opacity="0.29"><path id="Path_344" data-name="Path 344" d="M125.111,109.951s18.294-4.051,24.68,2.89c-13.1,8.5-18.557,5.589-18.557,5.589Z" transform="translate(-125.111 -108.776)" fill="url(#linear-gradient-32)"></path></g><path id="Path_345" data-name="Path 345" d="M115,107.12a118.8,118.8,0,0,1,44.61,34.376s26.96-21.087,51.75-25.917a30.587,30.587,0,0,1,12.713,7.467s-47.067,24.578-67.311,33c-20.413-22.722-56.115-42.957-58.289-44.622A26.019,26.019,0,0,1,115,107.12Z" transform="translate(141.371 108.542)" fill="#f9d0ac"></path><path id="Path_346" data-name="Path 346" d="M115,107.12a118.8,118.8,0,0,1,44.61,34.376s26.96-21.087,51.75-25.917a30.587,30.587,0,0,1,12.713,7.467s-47.067,24.578-67.311,33c-20.8-23.256-56.115-42.957-58.289-44.622A26.019,26.019,0,0,1,115,107.12Z" transform="translate(141.371 108.542)" opacity="0.29" fill="url(#radial-gradient-7)"></path><g id="Group_146" data-name="Group 146" transform="translate(245.827 226.291)"><g id="Group_144" data-name="Group 144" transform="translate(105.437)"><path id="Path_347" data-name="Path 347" d="M101.854,110.618,130.17,101.2l-4.216-7.657-28.316,9.412Z" transform="translate(-97.638 -93.545)" fill="url(#linear-gradient-33)"></path></g><g id="Group_145" data-name="Group 145" transform="translate(0 9.412)"><path id="Path_348" data-name="Path 348" d="M178.194,95.766,72.757,154.012l4.208,7.657L182.41,103.428Z" transform="translate(-72.757 -95.766)" fill="url(#linear-gradient-34)"></path></g></g><path id="Path_349" data-name="Path 349" d="M93.921,130.728l27.413-14.908,4.178-6.484L98.1,124.248Z" transform="translate(241.591 183.871)" fill="#593928"></path><path id="Path_350" data-name="Path 350" d="M133.235,84.973s-7.34,2.386-6.814,8.475a2.894,2.894,0,0,0,1.7,2.432,2.254,2.254,0,0,0,3.212-1.911,1.805,1.805,0,0,0-1.886-2C128.3,91.27,128.984,87.66,133.235,84.973Z" transform="translate(231.772 37.106)" fill="#febb96" opacity="0.42"></path><path id="Path_351" data-name="Path 351" d="M120.759,96.274a1.14,1.14,0,1,1-.334-.81A1.144,1.144,0,0,1,120.759,96.274Z" transform="translate(206.121 69.99)" fill="#fff"></path><path id="Path_352" data-name="Path 352" d="M106.731,115.189a11.68,11.68,0,0,0-3.424,1.466,32.353,32.353,0,0,0-2.966,2.267,5.085,5.085,0,0,0-1.3,1.271,2.9,2.9,0,0,0-.114,1.763,20.549,20.549,0,0,0,.873,3.636,13.879,13.879,0,0,1-1.076-3.606,3.085,3.085,0,0,1,.093-1.92,5.242,5.242,0,0,1,1.322-1.39,32.763,32.763,0,0,1,3.064-2.2,9.323,9.323,0,0,1,3.526-1.288Zm-4.344,5.378a4.547,4.547,0,0,0-1.1,3.814,17.742,17.742,0,0,0,.691,3.941,28.3,28.3,0,0,1-.483-3.949,4.263,4.263,0,0,1,1.119-3.581,14.353,14.353,0,0,1,6.539-4.314,13.137,13.137,0,0,0-6.768,4.089Zm2.411,2.182a6.78,6.78,0,0,0-1,3.017,19.158,19.158,0,0,0-.038,3.157q.042,1.577.165,3.153c.042-1.051.059-2.119.042-3.144a19.29,19.29,0,0,1,.14-3.132,6.62,6.62,0,0,1,.848-2.941,12.981,12.981,0,0,1,2.089-2.314,9.158,9.158,0,0,0-2.25,2.2Z" transform="translate(141.837 134.934)" fill="#a27e68" opacity="0.27"></path><g id="Group_147" data-name="Group 147" transform="translate(253.883 252.712)"><path id="Path_353" data-name="Path 353" d="M101.785,115.8" transform="translate(-101.785 -115.8)" fill="#fff"></path></g><path id="Path_354" data-name="Path 354" d="M107.675,117.884s-49.741,17.887-39.058,47.767c12.865,10.111,98.834,2.543,112.128-22.315S138.161,106.485,107.675,117.884Z" transform="translate(39.843 129.633)" fill="url(#linear-gradient-35)"></path><path id="Path_355" data-name="Path 355" d="M99.656,114.408s1.161,15.679-8.1,15.785C84.452,127.553,85.015,114.268,99.656,114.408Z" transform="translate(104.621 132.401)" fill="url(#linear-gradient-36)"></path><path id="Path_356" data-name="Path 356" d="M86.966,120.983a30.241,30.241,0,0,0,4.115,1.992,17.019,17.019,0,0,1,4.39,3.276,22.8,22.8,0,0,1,3.072,2.924c1.17,2.093,1.42,4.3,2.543,6.314.424.75,1.309,1.377,2.093,1.038a1.555,1.555,0,0,0,.847-1.178,7.429,7.429,0,0,0,.1-1.11,16.951,16.951,0,0,0-.848-6.31,20.564,20.564,0,0,0,4.852,2.187,28.772,28.772,0,0,0,1.085,7.268c.759,1.97,2.165.614,2.225-.072v-.326a1.4,1.4,0,0,0,1.229-.822c.106-.339.182-.687.28-1.03a1.407,1.407,0,0,0,.936-.589,34.384,34.384,0,0,0,1.7-3.716c.1-.267.174-.542.267-.814-.025,1.085,0,2.072.038,2.682.335,2.085,2,1.051,2.2.394a30.586,30.586,0,0,0,1.14-5.085,16.291,16.291,0,0,0,.136-1.759,6.855,6.855,0,0,0-.136-2c-.424-1.462-2.034-2.487-3.216-3.288a13.858,13.858,0,0,0-2.924-1.538s0,0,0-.021l-.335-.114-.068-.025a33.475,33.475,0,0,0-8.547-2.072,18.223,18.223,0,0,1-5.344-.686,59.274,59.274,0,0,1-5.242-2.8c-1.076-.576-1.911.848-2.543,1.458-1.271,1.242-2.687,2.3-4,3.488a2.119,2.119,0,0,0-.64.805,1.343,1.343,0,0,0,.6,1.525Z" transform="translate(102.013 129.7)" fill="url(#linear-gradient-37)"></path><path id="Path_357" data-name="Path 357" d="M96.96,116.477a32.215,32.215,0,0,1,3.064,2.2,5.323,5.323,0,0,1,1.326,1.39,3.085,3.085,0,0,1,.093,1.92,14.043,14.043,0,0,1-1.076,3.606,20.172,20.172,0,0,0,.848-3.636,2.869,2.869,0,0,0-.114-1.763,5.057,5.057,0,0,0-1.292-1.271,31.849,31.849,0,0,0-2.966-2.267,11.61,11.61,0,0,0-3.42-1.466,9.3,9.3,0,0,1,3.538,1.288Zm-5.933,0a14.34,14.34,0,0,1,6.534,4.314,4.238,4.238,0,0,1,1.119,3.581,27.675,27.675,0,0,1-.479,3.949,17.74,17.74,0,0,0,.686-3.941,4.53,4.53,0,0,0-1.093-3.814,13.166,13.166,0,0,0-6.784-4.1Zm2.089,4.077a12.825,12.825,0,0,1,2.089,2.31,6.513,6.513,0,0,1,.848,2.941,18.377,18.377,0,0,1,.14,3.132c0,1.047,0,2.093.042,3.144q.127-1.576.165-3.153a18.7,18.7,0,0,0-.034-3.157,6.843,6.843,0,0,0-1-3.017,9.1,9.1,0,0,0-2.284-2.208Z" transform="translate(117.212 134.934)" fill="#a27e68" opacity="0.27"></path><path id="Path_358" data-name="Path 358" d="M79.455,91.983a22.459,22.459,0,0,1,12.624,12.289c4.572,9.941,5.56,43.037,10.594,53.394,4.933,10.17,23.676,22.527,34.219,29.312-4.517-1.763-15.679,8.823-8.929,15.256-16.128-9.145-36.473-25.027-39.317-32.456S74.505,128.155,75.713,118.29,79.455,91.983,79.455,91.983Z" transform="translate(67.394 59.802)" fill="url(#linear-gradient-38)"></path><path id="Path_359" data-name="Path 359" d="M137.7,113.479l.085-17.218s-11.776-9.208-37.664-2.852c-21.9,6.746-32.812,77.43-41.453,100.818,4.814,23.1,60.95,43.44,74.8,19.069a204.255,204.255,0,0,0,4.233-99.818Z" transform="translate(12.497 57.176)" fill="url(#linear-gradient-39)"></path><path id="Path_360" data-name="Path 360" d="M77.994,122l-11.971-6.378S46.5,147.353,64.472,161.473c12.865,10.107,71.616,7.628,84.918-17.226S104.081,104.994,77.994,122Z" transform="translate(6.671 133.052)" fill="url(#linear-gradient-40)"></path><path id="Path_361" data-name="Path 361" d="M110.351,132.943s-42.851,5.187-44.4,20.544,8.84,27.206,8.577,30.905c0,0-18.146-1.449-17.624-23.782s11.264-17.535,13.955-51.822C86.946,111.11,110.351,132.943,110.351,132.943Z" transform="translate(6.745 114.21)" fill="url(#linear-gradient-41)"></path><path id="Path_362" data-name="Path 362" d="M79.018,109.2s4.483,16.8-1.975,18.93C69.263,121.814,70.466,107.11,79.018,109.2Z" transform="translate(55.173 114.888)" fill="url(#linear-gradient-42)"></path><path id="Path_363" data-name="Path 363" d="M118.893,164.519A126.514,126.514,0,0,0,83.547,155.9c.106-4.094,11.039-24.366,11.632-47.462V91.911a53.615,53.615,0,0,0-15.993,10.764c-4.331,5.539-19.646,49.479-19.654,57.712,0,12.658,51.123,24.6,57.759,22.917C111.761,177.537,116.977,165.078,118.893,164.519Z" transform="translate(15.298 59.568)" fill="url(#linear-gradient-43)"></path><path id="Path_364" data-name="Path 364" d="M100.39,148c-.674,0-1.339-.025-1.983-.085-7.013-.585-19.442-7.4-26.778-16.624a25.887,25.887,0,0,1-6.3-19.87c1.831-18.646,18.824-35.011,36.355-35.011q1.4,0,2.805.14a28.884,28.884,0,0,1,21.955,10.942c4.585,6.64,5.348,15.806,2.263,27.244a27.24,27.24,0,0,1-5.746,22.773A30.834,30.834,0,0,1,100.39,148Z" transform="translate(33.58 9.392)" fill="url(#linear-gradient-44)"></path><path id="Path_365" data-name="Path 365" d="M75.184,86.423c-.182-.788-8.683-7.577-11.018-.051s4.318,16.027,10.268,14.891" transform="translate(28.75 30.262)" fill="#fecaad"></path><path id="Path_366" data-name="Path 366" d="M109.049,98.088A48.967,48.967,0,0,0,111.168,84.4c.424-.9.805-1.742,1.191-2.543a45.229,45.229,0,0,1-1.746,15.213c3.814,23.18-16.794,34.287-30.189,33.109a29.24,29.24,0,0,1-9.691-3.14,30.24,30.24,0,0,0,8.45,2.034C109.867,125.37,109.214,101.275,109.049,98.088Z" transform="translate(51.559 27.02)" fill="#febb96"></path><path id="Path_369" data-name="Path 369" d="M86.488,91.716A7.874,7.874,0,1,1,79.56,82.55a8.128,8.128,0,0,1,6.929,9.166Z" transform="translate(51.957 29.117)" fill="#febb96"></path><path id="Path_370" data-name="Path 370" d="M84.469,91.71a6.78,6.78,0,1,1-4.827-8.2,6.78,6.78,0,0,1,4.827,8.2Z" transform="translate(52.79 31.623)" fill="#781415"></path><path id="Path_371" data-name="Path 371" d="M74.156,86.362a2.873,2.873,0,0,1-2.068-.9,5.763,5.763,0,0,1-1.246-1.9h0a5,5,0,0,0,3.3,2.793Z" transform="translate(51.915 32.521)" fill="#781415"></path><path id="Path_372" data-name="Path 372" d="M73.779,86.656a2.886,2.886,0,0,1-1.86-1.271,5.849,5.849,0,0,1-.847-2.119h.021A5.013,5.013,0,0,0,73.8,86.631Z" transform="translate(52.657 31.579)" fill="#781415"></path><path id="Path_373" data-name="Path 373" d="M74.505,85.869a2.878,2.878,0,0,1-2.216-.424,5.852,5.852,0,0,1-1.619-1.593h0a5.009,5.009,0,0,0,3.814,2.026Z" transform="translate(51.358 33.476)" fill="#781415"></path><path id="Path_374" data-name="Path 374" d="M74.789,85.16a2.894,2.894,0,0,1-2.254.157A5.716,5.716,0,0,1,70.556,84.2h0a5,5,0,0,0,4.212.962Z" transform="translate(50.989 34.597)" fill="#781415"></path><path id="Path_375" data-name="Path 375" d="M74.848,84.537a2.882,2.882,0,0,1-2.119.75,5.789,5.789,0,0,1-2.2-.551h0a5.018,5.018,0,0,0,4.318-.2Z" transform="translate(50.892 35.694)" fill="#781415"></path><path id="Path_376" data-name="Path 376" d="M83.318,91.24A6.145,6.145,0,1,1,79,83.659,6.145,6.145,0,0,1,83.318,91.24Z" transform="translate(53.245 32.161)" fill="#fff"></path><path id="Path_377" data-name="Path 377" d="M79.234,89.427A3.7,3.7,0,1,1,79,86.593a3.7,3.7,0,0,1,.234,2.833Z" transform="translate(55.702 35.877)" fill="url(#radial-gradient-8)"></path><path id="Path_378" data-name="Path 378" d="M77.251,88.188a2.543,2.543,0,1,1-.165-1.949A2.543,2.543,0,0,1,77.251,88.188Z" transform="translate(56.592 36.768)" fill="url(#radial-gradient-9)"></path><path id="Path_379" data-name="Path 379" d="M74.733,86.318a.763.763,0,1,1-.049-.585.767.767,0,0,1,.049.585Z" transform="translate(59.661 38.231)" fill="#fff"></path><path id="Path_380" data-name="Path 380" d="M73.23,86.5a.424.424,0,1,1-.024-.335A.424.424,0,0,1,73.23,86.5Z" transform="translate(56.978 40.211)" fill="#fff"></path><path id="Path_381" data-name="Path 381" d="M71.608,87.431a.47.47,0,0,1-.182-.2c-.576-1.1,1.754-2.966,2.5-3.517a7.628,7.628,0,0,1,5.136-1.542c.97.1,2.805.64,2.449,1.962a1.174,1.174,0,0,1-1.559.848l-.216-.059a7.4,7.4,0,0,0-6.645,1.653C72.816,86.808,72.032,87.685,71.608,87.431Z" transform="translate(53.514 27.982)" fill="#781415"></path><path id="Path_382" data-name="Path 382" d="M76.5,91.651a7.874,7.874,0,1,0,7.683-8.573A8.132,8.132,0,0,0,76.5,91.651Z" transform="translate(70.182 30.966)" fill="#febb96"></path><path id="Path_383" data-name="Path 383" d="M76.746,90.668a6.78,6.78,0,1,0,6.653-6.8,6.78,6.78,0,0,0-6.653,6.8Z" transform="translate(71.03 33.521)" fill="#781415"></path><path id="Path_384" data-name="Path 384" d="M79.516,86.787a5.017,5.017,0,0,0,3.7-2.233h0a5.776,5.776,0,0,1-1.53,1.7,2.89,2.89,0,0,1-2.191.564Z" transform="translate(79.931 35.749)" fill="#781415"></path><path id="Path_385" data-name="Path 385" d="M79.451,87.124a5.013,5.013,0,0,0,3.212-2.89h0a5.849,5.849,0,0,1-1.187,1.941,2.894,2.894,0,0,1-2.043.962Z" transform="translate(79.733 34.713)" fill="#781415"></path><path id="Path_386" data-name="Path 386" d="M79.545,86.265a5.021,5.021,0,0,0,4.089-1.394h0a5.7,5.7,0,0,1-1.852,1.318,2.894,2.894,0,0,1-2.254.085Z" transform="translate(80.038 36.775)" fill="#781415"></path><path id="Path_387" data-name="Path 387" d="M79.544,85.51a4.992,4.992,0,0,0,4.31-.275v.021a5.721,5.721,0,0,1-2.119.784,2.894,2.894,0,0,1-2.2-.509Z" transform="translate(80.063 37.954)" fill="#781415"></path><path id="Path_388" data-name="Path 388" d="M79.535,85.415a5,5,0,0,0,4.238.881h0a5.811,5.811,0,0,1-2.263.191,2.882,2.882,0,0,1-1.983-1.081Z" transform="translate(80.034 38.511)" fill="#781415"></path><path id="Path_389" data-name="Path 389" d="M76.9,90.357a6.145,6.145,0,1,0,6.013-6.323A6.145,6.145,0,0,0,76.9,90.357Z" transform="translate(71.527 34.061)" fill="#fff"></path><path id="Path_390" data-name="Path 390" d="M84.924,89.871a3.7,3.7,0,1,1-2.6-4.543A3.7,3.7,0,0,1,84.924,89.871Z" transform="translate(73.939 37.831)" fill="url(#radial-gradient-10)"></path><path id="Path_391" data-name="Path 391" d="M82.917,88.686a2.542,2.542,0,1,1-.246-1.936,2.543,2.543,0,0,1,.246,1.936Z" transform="translate(74.835 38.719)" fill="url(#radial-gradient-11)"></path><path id="Path_392" data-name="Path 392" d="M80.379,86.868a.767.767,0,1,1-.076-.583.767.767,0,0,1,.076.583Z" transform="translate(77.911 40.11)" fill="#fff"></path><path id="Path_393" data-name="Path 393" d="M78.895,87.1a.424.424,0,1,1-.038-.333.424.424,0,0,1,.038.333Z" transform="translate(75.302 42.212)" fill="#fff"></path><path id="Path_394" data-name="Path 394" d="M86.719,89.647a.466.466,0,0,0,.225-.157c.822-.928-.992-3.3-1.581-4.009a7.628,7.628,0,0,0-4.619-2.729c-.966-.136-2.877-.051-2.848,1.314a1.174,1.174,0,0,0,1.309,1.2h.225a7.382,7.382,0,0,1,6.051,3.2C85.677,88.749,86.219,89.787,86.719,89.647Z" transform="translate(74.753 29.766)" fill="#781415"></path><path id="Path_395" data-name="Path 395" d="M93.045,92.849S85.489,94.9,72.738,88.565C76.552,100.969,85.226,99.4,87,99.274S87.532,95.96,93.045,92.849Z" transform="translate(58.054 48.735)" fill="#781415"></path><path id="Path_396" data-name="Path 396" d="M73.686,90.326c8.293-.339,10.929,3,10.933,3a1.013,1.013,0,0,1-.691.322,11.565,11.565,0,0,1-10.242-3.322Z" transform="translate(61.123 54.36)" fill="#cf3422"></path><path id="Path_397" data-name="Path 397" d="M88.857,92.729a26.984,26.984,0,0,1-2.267,2.8A17.484,17.484,0,0,1,73.029,88.7a37.554,37.554,0,0,0,15.828,4.03Z" transform="translate(58.996 49.169)" fill="#fff"></path><path id="Path_398" data-name="Path 398" d="M77.084,85.523a18.824,18.824,0,0,0,2.5,10.467,5.327,5.327,0,0,1-3.157,1.92" transform="translate(69.985 38.886)" fill="#fecaad"></path><path id="Path_399" data-name="Path 399" d="M82.823,88.267s-6.78-1.178-7.429.788C75.072,90.484,80.191,91.268,82.823,88.267Z" transform="translate(66.606 46.639)" fill="#febb96"></path><path id="Path_400" data-name="Path 400" d="M76.351,97.851a5.221,5.221,0,0,0,3.39-1.915l.1-.119-.085-.127a17.293,17.293,0,0,1-2.305-10.077l-.424-.047a17.8,17.8,0,0,0,2.288,10.221,4.814,4.814,0,0,1-3,1.649Z" transform="translate(69.629 39.026)" fill="#febb96"></path><path id="Path_401" data-name="Path 401" d="M75.563,88.867c.127.267.623,0,1.271-.322s1.165-.521,1.038-.784a1.271,1.271,0,0,0-1.5-.17C75.729,87.9,75.436,88.6,75.563,88.867Z" transform="translate(67.107 45.034)" fill="#fff"></path><path id="Path_403" data-name="Path 403" d="M64.67,83.541s6.78,3.67,5.174,9.547a2.89,2.89,0,0,1-2.089,2.093c-1.326.3-2.733-.377-2.814-2.458a1.8,1.8,0,0,1,2.216-1.632C68.386,90.622,68.365,86.948,64.67,83.541Z" transform="translate(31.933 32.469)" fill="#febb96"></path><path id="Path_404" data-name="Path 404" d="M151.376,184.58a60.4,60.4,0,0,1-3.305-14.527,40.224,40.224,0,0,0-12.1-22.01,29.506,29.506,0,0,1-4.844,2.674,25.527,25.527,0,0,1-27.21-3.632,33.867,33.867,0,0,1-11.442-25.761,29.43,29.43,0,0,1,4.687-16.908c7.136-10.336,21.612-13.052,33.956-10.649A25.426,25.426,0,0,1,149.2,105.752a.788.788,0,0,0,.267.309c.225.131.364-.148.449-.653a20.67,20.67,0,0,0,0-6.78c-5.17-18.9-18.646-23.866-35.287-23.93-9.988-.038-19.438,2.068-26.379,9.8A45.165,45.165,0,0,0,77.8,118.609c.848,8.742,5.3,15.917,7.374,24.273,2.119,8.437-3.39,11.662-8.1,17.764a77.5,77.5,0,0,0-11.713,28.422c-2.221,8.526-6.094,17.256-5.958,26.218a1.907,1.907,0,0,0,.479,1.458c3.047-6.242,10.937-7.268,17.112-7.073a83.942,83.942,0,0,1,22.12,4.636c3.212,1,6.513,1.7,9.662,2.882a15.823,15.823,0,0,0,14.789.229,37.108,37.108,0,0,1,14.077-3.746c6.615-.818,17.345-3.7,19.213-11.251C158.36,196.272,153.817,189.784,151.376,184.58Z" transform="translate(14.851 3.839)" fill="url(#linear-gradient-45)"></path><g id="Group_150" data-name="Group 150" transform="translate(83.004 211.789)"><path id="Path_405" data-name="Path 405" d="M65.926,130.728,38.512,115.82l-4.178-6.484,27.409,14.912Z" transform="translate(-34.334 -27.918)" fill="#522e1c"></path><g id="Group_148" data-name="Group 148"><path id="Path_406" data-name="Path 406" d="M61.743,186.453,34.334,171.541,136.126,90.123l30.613,9Z" transform="translate(-34.334 -90.123)" fill="url(#linear-gradient-46)"></path></g><g id="Group_149" data-name="Group 149" transform="translate(27.409 9.001)"><path id="Path_407" data-name="Path 407" d="M145.8,92.247l4.191,6.479-105,87.329L40.8,179.576Z" transform="translate(-40.802 -92.247)" fill="url(#linear-gradient-47)"></path></g></g><path id="Path_408" data-name="Path 408" d="M169.655,107.538a132.138,132.138,0,0,0-44.919,35.8c-.263-1.237-26.273-22.315-50.585-27.341a3.194,3.194,0,0,0-1.136,0,39.767,39.767,0,0,0-8.9,5.339,2.373,2.373,0,0,0-.165,4.064c10.289,6.759,45.072,22.519,62.636,30.274a2.364,2.364,0,0,0,2.691-.551c17.442-18.938,44.071-35.325,53.661-41.2a2.369,2.369,0,0,0-.237-4.178,23.307,23.307,0,0,0-12.488-2.36A2.379,2.379,0,0,0,169.655,107.538Z" transform="translate(26.147 109.354)" fill="#6b1049"></path><path id="Path_409" data-name="Path 409" d="M121.294,115.243a82.705,82.705,0,0,0-26.854-9.386A67.582,67.582,0,0,0,82.287,108.7l31.4,8.242Z" transform="translate(88.97 104.721)" fill="#f9d0ac"></path><path id="Path_410" data-name="Path 410" d="M121.294,115.243a82.705,82.705,0,0,0-26.854-9.386A67.582,67.582,0,0,0,82.287,108.7l31.4,8.242Z" transform="translate(88.97 104.721)" opacity="0.29" fill="url(#linear-gradient-48)"></path><path id="Path_411" data-name="Path 411" d="M131.494,110.016s-7.56-2-15.573-3.767S81.6,125.348,75.015,134.5c-5.53,7.568,14.06,13.268,14.06,13.268Z" transform="translate(62.24 105.647)" fill="#f9d0ac"></path><path id="Path_412" data-name="Path 412" d="M131.45,110.016s-7.56-2-15.573-3.767-34.325,19.1-40.906,28.248c-5.327,7.729,14.06,13.268,14.06,13.268Z" transform="translate(62.284 105.647)" opacity="0.29" fill="url(#linear-gradient-49)"></path><path id="Path_413" data-name="Path 413" d="M84.891,140.623l-.038-.025a85.2,85.2,0,0,0-9.412-5.789c-.373-.2-.661-.36-.847-.466l-.055-.03.038-.047c3.39-4.479,26.451-25.083,37.584-27.829h.191a117.387,117.387,0,0,1,13.4,2.9l.174.051-.17.051a63.478,63.478,0,0,0-12.531,6.238,120.4,120.4,0,0,0-28.3,24.917ZM74.7,134.267l.788.424a85.606,85.606,0,0,1,9.386,5.767,122.573,122.573,0,0,1,28.3-24.909,65.784,65.784,0,0,1,12.382-6.187,113.809,113.809,0,0,0-13.192-2.852h-.182c-11.064,2.759-33.956,23.205-37.482,27.773Z" transform="translate(63.882 106.602)" fill="url(#radial-gradient-12)"></path><path id="Path_414" data-name="Path 414" d="M74.869,130.209c-3.28,0-5.373-6.2-5.373-10.475a7.8,7.8,0,0,1,.555-3.2,2,2,0,0,1,1.814-1.335,3.114,3.114,0,0,1,1.411.4,13.679,13.679,0,0,0,6.356,1.445,20.582,20.582,0,0,0,7.361-1.445,4.775,4.775,0,0,1,.542-.559c3.466-3.089,9.772-8.052,14.832-8.052a6.781,6.781,0,0,1,1.356.131c9.747,2.271,16.548,4.763,17.34,6.356a.632.632,0,0,1,.034.555c-.1.225-.453.335-1.081.335a59.4,59.4,0,0,1-9.747-1.911,45.811,45.811,0,0,0-5.509-1.174,23.7,23.7,0,0,1,7.628,3.365.8.8,0,0,1,.258.589c-.072.687-.576,1.021-1.547,1.021a27.048,27.048,0,0,1-6.153-1.449l-1.72-.517h-.3a4.807,4.807,0,0,1,.453.182c4.882,1.559,8.314,2.754,8.009,3.924-.174.576-.848.848-2,.848a20.74,20.74,0,0,1-5.662-1.157,30.424,30.424,0,0,0,5.6,1.7c.3.1.847.551.763,1.025-.059.4-.555.886-2.589.941a17.318,17.318,0,0,1-3.492-.487,11.506,11.506,0,0,0-2.335-.348,3.941,3.941,0,0,0-1.7.36,27.46,27.46,0,0,1-11.242,5.933,4.845,4.845,0,0,1-.576.115,27.744,27.744,0,0,0-4.551,1.034,48.546,48.546,0,0,1-8.5,1.793Z" transform="translate(47.537 108.392)" fill="url(#linear-gradient-50)"></path><path id="Path_415" data-name="Path 415" d="M118.89,115.691c-6.407-3.3-30.4-9.467-35.346-8.619l-24.01,4.475c0,12.658,51.123,24.6,57.759,22.917C111.758,128.709,116.974,116.25,118.89,115.691Z" transform="translate(15.301 108.396)" fill="url(#linear-gradient-51)"></path><path id="Path_416" data-name="Path 416" d="M83.708,109.951s-18.294-4.051-24.68,2.89c13.1,8.5,18.557,5.589,18.557,5.589Z" transform="translate(13.666 114.17)" fill="#f9d0ac"></path><g id="Group_151" data-name="Group 151" transform="translate(72.694 222.946)" opacity="0.29"><path id="Path_417" data-name="Path 417" d="M83.708,109.951s-18.294-4.051-24.68,2.89c13.1,8.5,18.557,5.589,18.557,5.589Z" transform="translate(-59.028 -108.776)" fill="url(#linear-gradient-52)"></path></g><path id="Path_418" data-name="Path 418" d="M170.924,107.12a118.836,118.836,0,0,0-44.61,34.376s-26.96-21.087-51.75-25.917a30.586,30.586,0,0,0-12.713,7.467s47.067,24.578,67.315,33c20.408-22.722,56.111-42.957,58.284-44.622a26.015,26.015,0,0,0-16.527-4.3Z" transform="translate(22.809 108.542)" fill="#f9d0ac"></path><path id="Path_419" data-name="Path 419" d="M170.924,107.12a118.836,118.836,0,0,0-44.61,34.376s-26.96-21.087-51.75-25.917a30.586,30.586,0,0,0-12.713,7.467s47.067,24.578,67.315,33c20.794-23.256,56.111-42.957,58.284-44.622a26.015,26.015,0,0,0-16.527-4.3Z" transform="translate(22.809 108.542)" opacity="0.29" fill="url(#radial-gradient-13)"></path><g id="Group_154" data-name="Group 154" transform="translate(66.312 226.291)"><g id="Group_152" data-name="Group 152"><path id="Path_420" data-name="Path 420" d="M58.711,110.618,30.4,101.2l4.216-7.657,28.316,9.412Z" transform="translate(-30.395 -93.545)" fill="url(#linear-gradient-53)"></path></g><g id="Group_153" data-name="Group 153" transform="translate(28.316 9.412)"><path id="Path_421" data-name="Path 421" d="M41.293,95.766l105.432,58.246-4.208,7.657L37.077,103.428Z" transform="translate(-37.077 -95.766)" fill="url(#linear-gradient-54)"></path></g></g></g></g></svg>